<svg xmlns="http://www.w3.org/2000/svg" viewBox="0 0 512 512">
  <rect width="512" height="512" fill="#F4EAD5"/>
  <g transform="translate(256 256) scale(2.0)">
    <path d="M0 60 Q3 78 -2 96" stroke="#5D6E4D" stroke-width="3" fill="none" stroke-linecap="round" opacity="0.85"/>
    <path d="M0 -78 Q-38 -62 -52 -30 Q-60 10 -42 42 Q-22 66 0 70 Q22 66 42 42 Q60 10 52 -30 Q38 -62 0 -78 Z" fill="#A8B89A"/>
    <path d="M0 -74 Q0 -30 0 10 Q0 48 0 68" stroke="#5D6E4D" stroke-width="2" fill="none" stroke-linecap="round" opacity="0.75"/>
    <path d="M0 -60 Q-14 -54 -28 -44" stroke="#5D6E4D" stroke-width="1.3" fill="none" stroke-linecap="round" opacity="0.6"/>
    <path d="M0 -48 Q16 -42 30 -30" stroke="#5D6E4D" stroke-width="1.3" fill="none" stroke-linecap="round" opacity="0.6"/>
    <path d="M0 -32 Q-20 -24 -38 -10" stroke="#5D6E4D" stroke-width="1.3" fill="none" stroke-linecap="round" opacity="0.6"/>
    <path d="M0 -18 Q22 -10 40 4" stroke="#5D6E4D" stroke-width="1.3" fill="none" stroke-linecap="round" opacity="0.6"/>
    <path d="M0 0 Q-22 10 -40 22" stroke="#5D6E4D" stroke-width="1.2" fill="none" stroke-linecap="round" opacity="0.55"/>
    <path d="M0 16 Q20 26 34 38" stroke="#5D6E4D" stroke-width="1.2" fill="none" stroke-linecap="round" opacity="0.55"/>
    <path d="M0 32 Q-14 42 -22 52" stroke="#5D6E4D" stroke-width="1.1" fill="none" stroke-linecap="round" opacity="0.5"/>
    <path d="M0 46 Q12 54 18 62" stroke="#5D6E4D" stroke-width="1" fill="none" stroke-linecap="round" opacity="0.45"/>
    <text x="16" y="74" text-anchor="start" font-family="Manrope, -apple-system, BlinkMacSystemFont, Helvetica, Arial, sans-serif" font-size="48" font-weight="500" fill="#7A5C3F" opacity="0.4">$</text>
  </g>
</svg>
